<svg xmlns="http://www.w3.org/2000/svg" width="119" height="83" viewBox="0 0 119 83">
    <path fill="#12D7B1" fill-rule="evenodd" d="M71.381 82.432h20.636a5.432 5.432 0 0 0 4.763-2.72l20.576-35.704a5.517 5.517 0 0 0 .05-5.508L96.78 2.771A5.508 5.508 0 0 0 92.05 0H71.382l22.204 38.45a5.56 5.56 0 0 1 0 5.567l-9.102 15.729a1.373 1.373 0 0 1-.5.483 1.39 1.39 0 0 1-1.915-.509L61.076 23.356a5.492 5.492 0 0 0-4.762-2.746H38.136a1.398 1.398 0 0 1-1.382-1.39 1.28 1.28 0 0 0-.05-.313L47.583 0h-20.6a5.508 5.508 0 0 0-4.79 2.754L1.585 38.458a5.525 5.525 0 0 0 0 5.517l20.628 35.728a5.542 5.542 0 0 0 4.737 2.755H47.61L25.424 44a5.585 5.585 0 0 1 0-5.568L34.5 22.678a1.39 1.39 0 0 1 2.398.025l21.009 36.373a5.483 5.483 0 0 0 4.754 2.788h18.195a1.424 1.424 0 0 1 1.22 2.094L71.381 82.432z"/>
</svg>
