<svg xmlns="http://www.w3.org/2000/svg" width="140" height="99" viewBox="0 0 140 99">
    <path fill="#FF582C" fill-rule="evenodd" d="M139.01 21.337l-10.446-18.1A6.495 6.495 0 0 0 122.95 0h-20.91a6.495 6.495 0 0 0-5.614 3.238L85.97 21.376a6.851 6.851 0 0 1-5.772 3.198H57.832a6.683 6.683 0 0 0-3.337.891L14.693 48.287a6.416 6.416 0 0 0-2.386 2.386L.87 70.475a6.545 6.545 0 0 0 0 6.515l10.426 18.06a6.515 6.515 0 0 0 5.644 3.267h20.851a6.525 6.525 0 0 0 5.644-3.267l10.406-18.01a6.861 6.861 0 0 1 5.841-3.297h22.95a6.604 6.604 0 0 0 3.347-.901l39.228-22.773a6.663 6.663 0 0 0 2.356-2.366l11.446-19.802a6.485 6.485 0 0 0 0-6.564zm-56.733 6.445a6.93 6.93 0 0 1 5.842-3.208h21.515a1.663 1.663 0 0 1 1.653 1.664c.005.293-.066.584-.208.841l-10.841 18.743a6.644 6.644 0 0 1-5.783 3.336H72.782a1.673 1.673 0 0 1-1.614-1.633 1.644 1.644 0 0 1 .218-.842l10.891-18.9zM67.05 49.158a1.663 1.663 0 0 1 1.653 1.664c.003.29-.069.577-.208.831L57.604 70.465a6.93 6.93 0 0 1-5.842 3.258H30.257a1.663 1.663 0 0 1-1.663-1.664c0-.275.065-.546.188-.792l10.891-18.871a6.515 6.515 0 0 1 5.654-3.257l21.723.02z"/>
</svg>
