<svg xmlns="http://www.w3.org/2000/svg" width="112" height="98" viewBox="0 0 112 98">
    <path fill="#FCCE07" fill-rule="evenodd" d="M71.444 75.232a1.657 1.657 0 0 1-.212-.828 1.636 1.636 0 0 1 1.637-1.677h21.394a6.515 6.515 0 0 0 5.636-3.252l12.121-21H86.87a1.636 1.636 0 0 1-1.627-1.637 1.758 1.758 0 0 1 .202-.828l10.708-18.535a6.505 6.505 0 0 0 0-6.505L84.02 0 71.424 21.818a1.657 1.657 0 0 1-2.828-.03L57.899 3.263A6.495 6.495 0 0 0 52.273 0H28.03l12.556 21.798a1.646 1.646 0 0 1-1.394 2.444H17.768a6.505 6.505 0 0 0-5.647 3.273L0 48.485h25.172c.9.005 1.626.736 1.626 1.636 0 .278-.066.551-.192.798L15.89 69.505a6.525 6.525 0 0 0 0 6.515l12.121 21 12.586-21.818a1.667 1.667 0 0 1 2.838 0l10.707 18.566a6.515 6.515 0 0 0 5.637 3.252H84.02L71.444 75.232zm-4.262-50.99c.9.006 1.626.737 1.626 1.637.001.282-.068.56-.202.808L57.424 46.07a1.657 1.657 0 0 1-2.838 0l.606 1.01-11.758-20.374a1.717 1.717 0 0 1-.202-.818 1.636 1.636 0 0 1 1.616-1.647h22.334zM29.434 50.97a1.737 1.737 0 0 1-.212-.829 1.626 1.626 0 0 1 1.576-1.656h22.384a1.667 1.667 0 0 1 1.424 2.444L43.434 70.323a1.646 1.646 0 0 1-2.818-.01L29.434 50.97zm42 19.343c-.142.24-.344.438-.586.576a1.667 1.667 0 0 1-2.262-.596L57.424 50.96a1.717 1.717 0 0 1-.202-.819 1.646 1.646 0 0 1 1.637-1.656h22.333a1.636 1.636 0 0 1 1.636 1.656c.002.282-.068.56-.202.808L71.434 70.313z"/>
</svg>
