<svg xmlns="http://www.w3.org/2000/svg" width="112" height="99" viewBox="0 0 112 99">
    <path fill="#0AC0FF" fill-rule="evenodd" d="M39.337 94.624a6.614 6.614 0 0 0 5.604 3.396h49.208a6.436 6.436 0 0 0 5.594-3.248l12.307-21.247H86.693a1.644 1.644 0 0 1-1.544-1.674c-.004-.256.05-.51.158-.742l10.891-18.812a6.545 6.545 0 0 0 0-6.505L71.624 3.297A6.644 6.644 0 0 0 65.96 0H41.426l12.713 22.01a1.683 1.683 0 0 1-1.426 2.495H31a6.515 6.515 0 0 0-5.614 3.287L.871 70.297a6.455 6.455 0 0 0 0 6.455L13.12 98.02 25.86 75.94c.143-.235.345-.429.585-.564a1.663 1.663 0 0 1 2.277.604l10.614 18.644zm16.237-70.119l-.128.247.128-.247zm25.416 49.01H30.05h.118a1.653 1.653 0 0 1-1.653-1.664c-.004-.29.067-.577.208-.831l25.426-44.05a1.663 1.663 0 0 1 2.851 0l25.436 44.06a1.673 1.673 0 0 1-1.446 2.485z"/>
</svg>
