<svg xmlns="http://www.w3.org/2000/svg" width="162" height="162" viewBox="0 0 162 162">
    <g fill="none" fill-rule="evenodd">
        <path fill="#3C117F" stroke="#3C117F" d="M.5.5h161v161H.5z"/>
        <path fill="#FFF" d="M55.712 51.332l16.835-.006s2.672 0 4.348-2.792l8.176-14.149A6.872 6.872 0 0 1 91.01 31H134l-9.86 17.047a6.439 6.439 0 0 1-5.583 3.247l-40.444.03a5.778 5.778 0 0 0-4.483 2.846l-8.418 14.565a6.09 6.09 0 0 0 .022 5.902l7.486 12.877a2.996 2.996 0 0 1-2.632 4.456L55.122 92a5.83 5.83 0 0 1-4.985-2.855l-8.263-14.327a6.22 6.22 0 0 1-.043-6.286l8.003-13.8a6.77 6.77 0 0 1 5.878-3.4zm56.158 22.526l8.255 14.307a6.22 6.22 0 0 1 .044 6.287l-7.977 13.82a6.788 6.788 0 0 1-5.88 3.402H89.466s-2.679.005-4.353 2.8l-8.166 14.092a7.106 7.106 0 0 1-6.078 3.383L28 132l9.856-17.079a6.439 6.439 0 0 1 5.582-3.247h40.516a5.772 5.772 0 0 0 4.41-2.823l8.412-14.575a6.09 6.09 0 0 0-.022-5.902L89.33 75.48a2.996 2.996 0 0 1 2.638-4.457L106.884 71a5.83 5.83 0 0 1 4.986 2.858z"/>
    </g>
</svg>
