<svg xmlns="http://www.w3.org/2000/svg" width="162" height="162" viewBox="0 0 162 162">
    <g fill="none" fill-rule="evenodd">
        <path fill="#6BC2E0" d="M0 0h162v162H0z"/>
        <path fill="#FFF" d="M64.376 128.477a6.742 6.742 0 0 0 5.733 3.462h50.528a6.582 6.582 0 0 0 5.733-3.334L139 106.714h-26.033a1.69 1.69 0 0 1-1.635-1.693c-.003-.266.053-.53.165-.771l11.13-19.384a6.76 6.76 0 0 0 .026-6.698L97.518 34.385A6.805 6.805 0 0 0 91.7 31H66.524l13.038 22.677a1.732 1.732 0 0 1-.006 1.697 1.72 1.72 0 0 1-1.45.872H55.812a6.697 6.697 0 0 0-5.764 3.384l-25.162 43.76a6.692 6.692 0 0 0 0 6.657L37.467 132l13.081-22.741a1.71 1.71 0 0 1 2.937.037l10.89 19.18zm16.203-72.113l-.158.272.158-.272zm26.725 50.616l-51.738.02.113-.017c-.6-.01-1.15-.34-1.45-.87a1.767 1.767 0 0 1-.015-1.713l25.84-45.57a1.69 1.69 0 0 1 1.448-.83 1.69 1.69 0 0 1 1.448.83l25.836 45.564a1.8 1.8 0 0 1 .214.866c.005.459-.172.9-.491 1.225-.32.323-.754.502-1.205.495z"/>
    </g>
</svg>
