<svg xmlns="http://www.w3.org/2000/svg" width="162" height="162" viewBox="0 0 162 162">
    <g fill="none" fill-rule="evenodd">
        <path fill="#FCCE07" d="M0 0h162v162H0z"/>
        <path fill="#FFF" d="M94.764 105.143a1.478 1.478 0 0 1-.187-.74c0-.806.653-1.458 1.458-1.458h19.096a5.808 5.808 0 0 0 5.03-2.916L131 81.294h-22.449a1.458 1.458 0 0 1-1.458-1.457c-.003-.26.06-.515.187-.74l9.533-16.549a5.813 5.813 0 0 0 0-5.807L105.985 38 94.746 57.47a1.475 1.475 0 0 1-2.522-.023L82.68 40.914A5.808 5.808 0 0 0 77.647 38h-21.65l11.225 19.452c.125.224.19.477.19.735 0 .796-.64 1.445-1.435 1.457H46.86c-2.08 0-4 1.113-5.035 2.916L31 81.294h22.47c.804 0 1.457.653 1.457 1.458.003.25-.057.495-.175.714l-9.571 16.569a5.81 5.81 0 0 0 0 5.813l10.816 18.74 11.24-19.471a1.478 1.478 0 0 1 2.527.02l9.56 16.536a5.813 5.813 0 0 0 5.029 2.916h21.632l-11.221-19.446zm-3.805-45.481c.805 0 1.458.652 1.458 1.458.003.25-.058.497-.178.717l-9.991 17.27a1.475 1.475 0 0 1-2.53-.031l.541.941-10.495-18.192a1.519 1.519 0 0 1-.187-.726c0-.805.653-1.458 1.458-1.458l19.924.02zM57.274 83.48a1.478 1.478 0 0 1-.195-.74c0-.788.624-1.433 1.41-1.458h19.972a1.472 1.472 0 0 1 1.27 2.18L69.75 100.75c-.125.21-.303.384-.516.505a1.458 1.458 0 0 1-2-.513l-9.959-17.26zm37.478 17.262a1.472 1.472 0 0 1-2.536-.023l-9.962-17.239a1.499 1.499 0 0 1-.178-.729c0-.805.652-1.458 1.458-1.458h19.932c.806 0 1.458.653 1.458 1.458.005.252-.056.5-.178.72l-9.994 17.271z"/>
    </g>
</svg>
