<svg xmlns="http://www.w3.org/2000/svg" width="162" height="162" viewBox="0 0 162 162">
    <g fill="none" fill-rule="evenodd">
        <path fill="#FF582C" d="M0 0h162v162H0z"/>
        <path fill="#FFF" d="M136.302 59.713l-8.29-14.175A5.154 5.154 0 0 0 123.56 43h-16.605a5.157 5.157 0 0 0-4.454 2.538l-8.284 14.208a5.477 5.477 0 0 1-4.62 2.505H71.89a5.282 5.282 0 0 0-2.653.7L37.659 80.821a5.14 5.14 0 0 0-1.898 1.874l-9.068 15.5a5.05 5.05 0 0 0 0 5.106l8.277 14.145A5.186 5.186 0 0 0 39.452 120h16.553a5.186 5.186 0 0 0 4.482-2.553l8.253-14.111a5.467 5.467 0 0 1 4.64-2.584h18.211c.933 0 1.85-.245 2.656-.707l31.117-17.872a5.068 5.068 0 0 0 1.87-1.851l9.089-15.544a5.01 5.01 0 0 0-.02-5.065zm-45.019 5.05a5.477 5.477 0 0 1 4.627-2.512h17.07a1.31 1.31 0 0 1 1.141 1.96l-8.59 14.681a5.305 5.305 0 0 1-4.593 2.614H83.75a1.31 1.31 0 0 1-1.278-1.302c-.002-.23.056-.455.168-.656l8.644-14.785zM79.2 81.503c.349 0 .684.138.93.381.247.244.386.575.386.92a1.33 1.33 0 0 1-.165.653L71.72 98.209a5.479 5.479 0 0 1-4.63 2.553H50.007a1.308 1.308 0 0 1-1.167-1.92l8.657-14.782a5.186 5.186 0 0 1 4.482-2.554l17.22-.002z"/>
    </g>
</svg>
