<svg xmlns="http://www.w3.org/2000/svg" width="162" height="162" viewBox="0 0 162 162">
    <g fill="none" fill-rule="evenodd">
        <path fill="#92D32A" d="M0 0h162v162H0z"/>
        <path fill="#FFF" d="M63.296 113.833a1.346 1.346 0 0 1-.172-.659 1.375 1.375 0 0 1 1.372-1.374l17.851.016c1.95 0 3.76-1.277 4.73-2.958L132 31h-20.295c-1.923 0-3.777 1.345-4.74 3.02L63.287 109.76a1.383 1.383 0 0 1-2.359-.033L38.837 71.413l-10.11 17.409a5.4 5.4 0 0 0 0 5.414l20.201 35.04a5.39 5.39 0 0 0 4.66 2.689L73.78 132l-10.483-18.167z"/>
    </g>
</svg>
