<svg xmlns="http://www.w3.org/2000/svg" width="162" height="162" viewBox="0 0 162 162">
    <g fill="none" fill-rule="evenodd">
        <path fill="#12D7B1" d="M0 0h162v162H0z"/>
        <path fill="#FFF" d="M91.15 116.518h17.593a4.641 4.641 0 0 0 4.057-2.33L130.35 83.65a4.742 4.742 0 0 0 .047-4.716L112.8 48.364A4.693 4.693 0 0 0 108.764 46H91.15l18.93 32.892a4.773 4.773 0 0 1-.017 4.763l-7.744 13.453a1.194 1.194 0 0 1-2.056-.019L82.347 65.978a4.68 4.68 0 0 0-4.057-2.348H62.776a1.18 1.18 0 0 1-1.179-1.183 1.288 1.288 0 0 0-.042-.267l9.3-16.18H53.283a4.712 4.712 0 0 0-4.079 2.365L31.628 78.9a4.742 4.742 0 0 0 0 4.716l17.59 30.562a4.712 4.712 0 0 0 4.036 2.365l17.622.014-18.935-32.92a4.78 4.78 0 0 1 0-4.76l7.754-13.48a1.18 1.18 0 0 1 .417-.413 1.176 1.176 0 0 1 1.631.432L79.66 96.531a4.682 4.682 0 0 0 4.052 2.35h15.521c.423.008.81.237 1.023.603.212.367.218.818.014 1.19l-9.12 15.844z"/>
    </g>
</svg>
