<svg xmlns="http://www.w3.org/2000/svg" width="325" height="65" viewBox="0 0 325 65">
    <g fill="none" fill-rule="nonzero">
        <path fill="#FFF" d="M145.729 16.153h8.913a3.057 3.057 0 0 1 2.452.927c.55.738.782 1.665.644 2.574l-4.287 44.143h-8.41l4.266-40.667h-1.242l-12.627 31.843c-.738 1.84-2.025 2.761-3.861 2.761h-6.642c-1.93 0-3.063-1.01-3.385-3.037l-4.145-31.535h-1.287l-7.072 40.654h-8.425l8.013-44.406c.321-2.145 1.518-3.218 3.59-3.218h8.708c1.84 0 2.877 1.013 3.109 3.038l3.52 25.82c.302 2.176.487 4.367.553 6.564h1.107c.6-1.884 1.384-4.003 2.35-6.359l10.296-26.315a4.029 4.029 0 0 1 3.862-2.787zM192.014 63.816h-6.635l.212-5.876c-3.827 4.424-8.546 6.659-14.158 6.706-4.145.043-6.966-1.317-8.463-4.08-1.498-2.763-1.787-7.506-.869-14.23a39.051 39.051 0 0 1 2.317-9.286 11.9 11.9 0 0 1 3.9-5.29 13.039 13.039 0 0 1 4.872-2.24 31.773 31.773 0 0 1 6.39-.521A72.581 72.581 0 0 1 196.641 31l-4.627 32.816zm-4.505-28.047l-6.146-.07a28.413 28.413 0 0 0-4.84.308 5.83 5.83 0 0 0-2.934 1.526 7.08 7.08 0 0 0-1.867 3.282 47.418 47.418 0 0 0-1.139 5.94c-.643 4.74-.77 7.733-.38 8.978.39 1.244 1.532 1.866 3.424 1.866a10.702 10.702 0 0 0 5.606-1.609 33.935 33.935 0 0 0 6.146-5.078l2.13-15.143zM227.59 28.999l-1.93 7.877h-2.214c-1.26.032-2.502.3-3.662.792a30.305 30.305 0 0 0-3.662 1.725c-1.107.622-2.789 1.67-5.046 3.147l-2.902 21.276h-8.367l4.763-33.852h6.435l-.205 7.189c5.44-5.436 10.39-8.154 14.853-8.154h1.937zM252.522 29.964h8.566c-1.75 6.127-5.398 11.194-10.941 15.201a20.98 20.98 0 0 1 2.349 4.145l6.358 14.506h-8.887l-6.056-14.854c-1.618.858-3.977 1.987-7.08 3.386l-1.73 11.468h-8.367l6.796-48.37h8.45l-2.902 21.623a34.109 34.109 0 0 1-2.35 8.495c9.148-4.822 14.412-10.022 15.794-15.6zM291.966 56.975l.553 5.457c-3.544 1.472-8.332 2.21-14.364 2.214-6.032.004-10.224-1.527-12.575-4.595-2.351-3.063-3.11-7.749-2.279-14.055.859-6.492 2.678-10.947 5.458-13.367 2.78-2.42 7.339-3.63 13.676-3.63 5.616 0 9.404.955 11.365 2.864 1.96 1.91 2.686 4.709 2.175 8.398-.463 3.313-1.75 5.707-3.861 7.183-2.111 1.475-5.361 2.35-9.75 2.625l-10.703.895c.048 2.673.691 4.481 1.931 5.425 1.242.946 3.134 1.416 5.663 1.416 4.25-.027 8.494-.304 12.71-.83zM272.144 45.3l9.654-.83c1.93-.133 3.346-.562 4.247-1.287.901-.725 1.465-1.956 1.693-3.694.135-1.75-.213-2.838-1.037-3.25-.823-.412-2.574-.643-5.322-.643-3.037.051-5.183.707-6.435 1.969-1.253 1.261-2.186 3.84-2.8 7.735zM313.937 36.04l-2.49 17.408c-.18 1.474-.058 2.465.38 2.967.437.502 1.415.76 2.94.76h4.763l.347 6.216a27.23 27.23 0 0 1-8.566 1.178c-3.089 0-5.356-.875-6.802-2.626-1.446-1.75-1.942-4.213-1.487-7.388l2.626-18.515h-6.152l.759-5.735 6.288-.347 1.383-9.737h8.29l-1.384 9.743h9.808l-.76 6.076h-9.943z"/>
        <path fill="#FF572C" d="M90.356 13.869l-6.79-11.765A4.222 4.222 0 0 0 79.919 0H66.326a4.222 4.222 0 0 0-3.65 2.104l-6.795 11.79a4.453 4.453 0 0 1-3.752 2.08H37.59c-.762-.001-1.51.199-2.17.578L9.552 31.387A4.17 4.17 0 0 0 8 32.937L.566 45.81a4.254 4.254 0 0 0 0 4.235l6.777 11.738a4.235 4.235 0 0 0 3.668 2.124h13.554a4.241 4.241 0 0 0 3.668-2.124l6.764-11.706a4.46 4.46 0 0 1 3.797-2.143h14.918c.764.002 1.515-.2 2.175-.586l25.498-14.802a4.331 4.331 0 0 0 1.532-1.538l7.44-12.871a4.215 4.215 0 0 0 0-4.267zm-36.876 4.19a4.505 4.505 0 0 1 3.797-2.086h13.985a1.081 1.081 0 0 1 1.075 1.081c.003.191-.043.38-.136.547l-7.047 12.183a4.318 4.318 0 0 1-3.758 2.169H47.308a1.088 1.088 0 0 1-1.049-1.062c-.002-.192.047-.38.142-.547l7.08-12.286zm-9.898 13.894a1.081 1.081 0 0 1 1.075 1.081c.002.189-.045.375-.135.54l-7.08 12.228a4.505 4.505 0 0 1-3.796 2.118H19.667a1.081 1.081 0 0 1-1.08-1.081c0-.18.041-.356.121-.515l7.08-12.267a4.235 4.235 0 0 1 3.674-2.117l14.12.013z"/>
    </g>
</svg>
