<svg xmlns="http://www.w3.org/2000/svg" width="500" height="100" viewBox="0 0 500 100">
    <g fill="none" fill-rule="nonzero">
        <path fill="#3C117F" d="M224.198 24.851h13.713a4.703 4.703 0 0 1 3.772 1.426 5.287 5.287 0 0 1 .99 3.96L236.08 98.15h-12.94l6.564-62.565h-1.91l-19.427 48.99c-1.135 2.832-3.115 4.248-5.94 4.248h-10.218c-2.97 0-4.713-1.555-5.208-4.673l-6.376-48.515h-1.98l-10.882 62.544h-12.96l12.327-68.317c.495-3.3 2.336-4.95 5.524-4.95h13.397c2.831 0 4.425 1.558 4.782 4.673l5.416 39.723c.465 3.349.749 6.72.851 10.099h1.703c.924-2.898 2.129-6.158 3.614-9.782l15.841-40.485a6.198 6.198 0 0 1 5.941-4.288zM295.406 98.178h-10.208l.327-9.04c-5.888 6.806-13.149 10.245-21.782 10.317-6.377.066-10.717-2.026-13.02-6.277-2.304-4.25-2.75-11.548-1.337-21.89A60.08 60.08 0 0 1 252.95 57a18.307 18.307 0 0 1 6-8.139 20.06 20.06 0 0 1 7.496-3.445 48.881 48.881 0 0 1 9.831-.802 111.663 111.663 0 0 1 26.248 3.08l-7.12 50.484zm-6.93-43.148l-9.456-.11a43.713 43.713 0 0 0-7.446.476 8.97 8.97 0 0 0-4.515 2.347 10.891 10.891 0 0 0-2.87 5.05 72.95 72.95 0 0 0-1.753 9.138c-.99 7.293-1.185 11.897-.585 13.812.601 1.914 2.357 2.87 5.268 2.87a16.465 16.465 0 0 0 8.624-2.474 52.208 52.208 0 0 0 9.455-7.812l3.277-23.297zM350.139 44.614l-2.97 12.119h-3.407a15.446 15.446 0 0 0-5.633 1.217 46.624 46.624 0 0 0-5.634 2.654c-1.703.957-4.29 2.57-7.762 4.842l-4.466 32.732h-12.871l7.327-52.079h9.9l-.316 11.06c8.37-8.364 15.987-12.545 22.851-12.545h2.98zM388.495 46.099h13.178c-2.693 9.426-8.303 17.221-16.831 23.386a32.277 32.277 0 0 1 3.613 6.376l9.783 22.317h-13.674l-9.316-22.851c-2.489 1.32-6.12 3.056-10.892 5.208l-2.663 17.643h-12.871l10.455-74.416h13l-4.465 33.268a52.475 52.475 0 0 1-3.614 13.069c14.073-7.42 22.172-15.42 24.297-24zM449.178 87.653l.852 8.397c-5.452 2.264-12.819 3.399-22.1 3.405-9.28.007-15.729-2.35-19.346-7.069-3.617-4.713-4.785-11.92-3.505-21.624 1.32-9.986 4.119-16.841 8.396-20.564 4.277-3.723 11.29-5.584 21.04-5.584 8.64 0 14.468 1.469 17.485 4.406 3.017 2.937 4.132 7.244 3.347 12.92-.713 5.096-2.694 8.78-5.941 11.05-3.248 2.27-8.248 3.617-15 4.04l-16.465 1.376c.072 4.112 1.062 6.894 2.97 8.346 1.91 1.456 4.822 2.179 8.713 2.179a166.594 166.594 0 0 0 19.554-1.278zm-30.495-17.96l14.852-1.277c2.97-.205 5.148-.865 6.534-1.98 1.386-1.116 2.254-3.01 2.604-5.684.208-2.693-.326-4.366-1.594-5-1.267-.633-3.96-.99-8.188-.99-4.673.08-7.974 1.09-9.9 3.03-1.928 1.94-3.364 5.908-4.308 11.901zM482.98 55.446l-3.831 26.782c-.278 2.267-.09 3.792.584 4.564.673.772 2.178 1.168 4.524 1.168h7.327l.535 9.565a41.891 41.891 0 0 1-13.178 1.812c-4.753 0-8.241-1.347-10.466-4.04-2.224-2.693-2.987-6.482-2.287-11.366l4.04-28.485h-9.466l1.169-8.822 9.673-.535 2.129-14.98h12.752l-2.129 14.99h15.09l-1.169 9.347H482.98z"/>
        <path fill="#FF572C" d="M139.01 21.337l-10.446-18.1A6.495 6.495 0 0 0 122.95 0h-20.91a6.495 6.495 0 0 0-5.614 3.238L85.97 21.376a6.851 6.851 0 0 1-5.772 3.198H57.832a6.683 6.683 0 0 0-3.337.891L14.693 48.287a6.416 6.416 0 0 0-2.386 2.386L.87 70.475a6.545 6.545 0 0 0 0 6.515l10.426 18.06a6.515 6.515 0 0 0 5.644 3.267h20.851a6.525 6.525 0 0 0 5.644-3.267l10.406-18.01a6.861 6.861 0 0 1 5.841-3.297h22.95a6.604 6.604 0 0 0 3.347-.901l39.228-22.773a6.663 6.663 0 0 0 2.356-2.366l11.446-19.802a6.485 6.485 0 0 0 0-6.564zm-56.733 6.445a6.93 6.93 0 0 1 5.842-3.208h21.515a1.663 1.663 0 0 1 1.653 1.664c.005.293-.066.584-.208.841l-10.841 18.743a6.644 6.644 0 0 1-5.783 3.336H72.782a1.673 1.673 0 0 1-1.614-1.633 1.644 1.644 0 0 1 .218-.842l10.891-18.9zM67.05 49.158a1.663 1.663 0 0 1 1.653 1.664c.003.29-.069.577-.208.831L57.604 70.465a6.93 6.93 0 0 1-5.842 3.258H30.257a1.663 1.663 0 0 1-1.663-1.664c0-.275.065-.546.188-.792l10.891-18.871a6.515 6.515 0 0 1 5.654-3.257l21.723.02z"/>
    </g>
</svg>
