<svg xmlns="http://www.w3.org/2000/svg" width="307" height="65" viewBox="0 0 307 65">
    <g fill="#FFF" fill-rule="nonzero">
        <path d="M17.482 13a4.321 4.321 0 0 0-3.749 2.168l-5.111 8.84a3.988 3.988 0 0 0 .03 4.015l5.274 9.105a3.708 3.708 0 0 0 3.182 1.825h9.552a1.914 1.914 0 0 0 1.68-2.865l-4.779-8.221a3.9 3.9 0 0 1 0-3.77l5.361-9.303A3.687 3.687 0 0 1 31.782 13H57.59a4.092 4.092 0 0 0 3.562-2.08L67.449 0H40.01a4.378 4.378 0 0 0-3.786 2.163l-5.2 9.033A3.474 3.474 0 0 1 28.226 13H17.482z"/>
        <path d="M53.508 27.778a3.713 3.713 0 0 0-3.182-1.825H40.81a1.908 1.908 0 0 0-1.68 2.845l4.732 8.231a3.89 3.89 0 0 1 0 3.77l-5.35 9.324a3.692 3.692 0 0 1-2.814 1.799H9.848a4.108 4.108 0 0 0-3.561 2.08L0 64.902l27.352-.032a4.54 4.54 0 0 0 3.874-2.163l5.2-8.996a3.468 3.468 0 0 1 2.777-1.789h10.759c1.549 0 2.98-.829 3.749-2.174l5.09-8.84a3.999 3.999 0 0 0-.041-3.988l-5.252-9.142zM93.652 42.349l-7.17-3.214c-2.178-.995-3.708-2.161-4.592-3.5a7.316 7.316 0 0 1-.973-4.991c.305-2.6 1.423-4.427 3.354-5.481 1.931-1.054 4.886-1.56 8.866-1.519 4.17.054 8.329.401 12.449 1.04l-.749 4.758a357.755 357.755 0 0 0-11.242-.171 23.982 23.982 0 0 0-4.649.286 1.68 1.68 0 0 0-1.316 1.56 1.804 1.804 0 0 0 .52 1.752c.826.604 1.73 1.092 2.689 1.451l7.17 3.214c2.372 1.04 4 2.152 4.878 3.354.879 1.2 1.186 2.86.92 4.966a9.464 9.464 0 0 1-1.04 3.265 6.828 6.828 0 0 1-1.809 2.127 7.634 7.634 0 0 1-2.808 1.232c-1.153.281-2.327.469-3.51.562-1.186.094-2.657.146-4.415.146-1.456 0-2.737-.03-3.843-.089a59.534 59.534 0 0 1-2.496-.171 71.934 71.934 0 0 1-2.496-.318 97.75 97.75 0 0 0-2.698-.343l.748-4.877c2.028.156 4.935.234 8.72.234 3.467 0 5.771-.144 6.912-.432 1.14-.288 1.8-.89 1.98-1.81a.972.972 0 0 1 0-.52.41.41 0 0 0-.082-.426 1.32 1.32 0 0 1-.203-.343c0-.078-.115-.177-.286-.291a2.6 2.6 0 0 1-.375-.286 1.602 1.602 0 0 0-.457-.255 9.777 9.777 0 0 1-.572-.26c-.151-.078-.385-.182-.692-.317-.307-.136-.54-.26-.733-.333zM120.27 12.402l-1.377 10.478a48.36 48.36 0 0 1-1.435 6.885c4.593-4.08 8.774-6.12 12.542-6.12 2.45 0 4.297.693 5.538 2.08 1.241 1.386 1.67 3.338 1.29 5.855l-2.985 20.992h-6.921l2.641-19.157c.193-1.529.151-2.553-.114-3.073s-.9-.775-1.893-.775a9.23 9.23 0 0 0-4.503 1.295 49.239 49.239 0 0 0-5.996 4.16l-2.407 17.555h-6.942l5.62-40.154 6.943-.021zM147.404 52.556h-6.942l3.958-28.08h6.9l-3.916 28.08zm.458-40.326h3.156a1.893 1.893 0 0 1 1.519.572c.343.443.479 1.01.374 1.56l-.4 3.157c-.234 1.258-.957 1.893-2.184 1.893h-3.167c-1.456 0-2.087-.727-1.893-2.18l.458-3.12c.125-1.254.837-1.882 2.137-1.882zM163.582 24.44l-.172 5.621a27.498 27.498 0 0 1 5.876-4.477 12.48 12.48 0 0 1 6.11-1.836c2.219 0 3.931.43 5.138 1.29 1.206.86 2.057 2.41 2.553 4.649.496 2.236.438 5.306-.172 9.209a33.686 33.686 0 0 1-1.81 7.628 9.625 9.625 0 0 1-6.827 6.308c-1.573.338-3.18.493-4.79.463a56.987 56.987 0 0 1-8.662-.749c0 1.786-.134 3.57-.4 5.335l-.921 5.855h-6.994l5.569-39.296h5.502zm-1.779 23.462l5.107.058c3.362 0 5.551-.52 6.567-1.56s1.81-3.632 2.382-7.774c.496-3.939.572-6.424.229-7.457-.344-1.04-1.264-1.56-2.756-1.56-1.108 0-2.554.483-4.332 1.435a27.316 27.316 0 0 0-5.418 3.957l-1.779 12.901zM189.337 44.72h2.08c1.758 0 2.527.858 2.299 2.6l-.406 2.928c-.15 1.56-1.04 2.35-2.636 2.35h-2.08c-1.8 0-2.585-.879-2.356-2.636l.463-2.928c.152-1.543 1.031-2.314 2.636-2.314zM221.463 46.935l.457 4.649a29.151 29.151 0 0 1-10.4 1.664c-5.044 0-8.51-1.167-10.4-3.5-1.889-2.333-2.444-6.177-1.664-11.533.767-5.35 2.295-9.116 4.587-11.3 2.291-2.184 5.886-3.274 10.785-3.27 4.056 0 7.349.554 9.88 1.663l-.978 4.244c-3.9-.073-6.52-.111-7.857-.115-3.061 0-5.231.603-6.51 1.81-1.28 1.206-2.146 3.662-2.6 7.368-.463 3.75-.287 6.167.52 7.28.805 1.113 2.636 1.633 5.506 1.633a58.76 58.76 0 0 0 8.674-.593zM251.347 52.556h-5.507l.177-4.872c-3.179 3.671-7.1 5.526-11.762 5.564-3.443.035-5.784-1.094-7.025-3.385-1.241-2.292-1.48-6.232-.718-11.82a32.557 32.557 0 0 1 1.919-7.717 9.88 9.88 0 0 1 3.245-4.388 10.852 10.852 0 0 1 4.04-1.862 26.63 26.63 0 0 1 5.31-.432c4.772-.009 9.529.55 14.17 1.664l-3.849 27.248zm-3.728-23.29l-5.101-.058a23.442 23.442 0 0 0-4.02.26 4.768 4.768 0 0 0-2.418 1.264c-.76.747-1.3 1.69-1.56 2.725a38.683 38.683 0 0 0-.946 4.93c-.538 3.941-.643 6.428-.318 7.461.326 1.033 1.273 1.553 2.84 1.56a8.882 8.882 0 0 0 4.664-1.362 28.21 28.21 0 0 0 5.101-4.217l1.758-12.563zM280.894 23.644l-1.607 6.542h-1.836a8.32 8.32 0 0 0-3.042.66 24.627 24.627 0 0 0-3.037 1.43c-.918.52-2.315 1.387-4.19 2.6l-2.408 17.68h-6.942l3.957-28.08h5.335l-.172 5.965c4.507-4.507 8.619-6.76 12.335-6.76l1.607-.037zM294.486 42.349l-7.17-3.214c-2.177-.995-3.706-2.161-4.587-3.5a7.316 7.316 0 0 1-.977-4.991c.305-2.6 1.424-4.427 3.359-5.481 1.934-1.054 4.88-1.56 8.84-1.519 4.169.053 8.329.4 12.449 1.04l-.744 4.758a357.928 357.928 0 0 0-11.248-.171 23.956 23.956 0 0 0-4.643.286 1.685 1.685 0 0 0-1.321 1.56 1.815 1.815 0 0 0 .52 1.752 11.279 11.279 0 0 0 2.714 1.451l7.171 3.214c2.371 1.04 3.994 2.152 4.878 3.354.884 1.2 1.18 2.86.915 4.966a9.36 9.36 0 0 1-1.04 3.265 6.76 6.76 0 0 1-1.804 2.127 7.618 7.618 0 0 1-2.814 1.232 22.043 22.043 0 0 1-3.525.572c-1.186.094-2.657.146-4.42.146a73.4 73.4 0 0 1-3.843-.088 58.674 58.674 0 0 1-2.496-.172 73.666 73.666 0 0 1-2.49-.317 100.36 100.36 0 0 0-2.7-.343l.77-4.883c2.028.156 4.935.234 8.72.234 3.467 0 5.772-.144 6.916-.432 1.129-.286 1.784-.889 1.976-1.81a1.04 1.04 0 0 1 .032-.52.416.416 0 0 0-.089-.426 1.134 1.134 0 0 1-.197-.343c0-.078-.115-.177-.286-.291a2.111 2.111 0 0 1-.375-.286 1.602 1.602 0 0 0-.457-.255 10.132 10.132 0 0 1-.578-.26c-.156-.078-.38-.182-.686-.317-.307-.135-.577-.265-.77-.338z"/>
    </g>
</svg>
