<svg xmlns="http://www.w3.org/2000/svg" width="462" height="100" viewBox="0 0 462 100">
    <g fill="none" fill-rule="nonzero">
        <path fill="#3C117F" d="M187.584 86.762l.634 10.07c-5.94 1.762-13.43 2.647-22.466 2.653-10.798 0-18.161-3.02-22.089-9.06-3.927-6.039-4.917-15.805-2.97-29.296 1.908-13.921 5.37-23.617 10.386-29.09 5.017-5.471 12.96-8.207 23.832-8.207A81.287 81.287 0 0 1 196 26.267l-1.94 9.96c-6.14-.494-12.638-.742-19.496-.742-4.237 0-7.557.69-9.96 2.07-2.403 1.379-4.432 3.993-6.09 7.841-1.663 3.855-2.983 9.465-3.96 16.832-1.419 9.822-1.313 16.531.317 20.128 1.63 3.598 5.373 5.433 11.228 5.505 7.178.093 14.354-.274 21.485-1.099zM242.782 98.208h-10.178l.317-9c-5.862 6.772-13.1 10.198-21.713 10.277-6.357.066-10.683-2.02-12.98-6.257-2.297-4.238-2.74-11.499-1.327-21.782a59.871 59.871 0 0 1 3.554-14.248 18.178 18.178 0 0 1 5.941-8.109 20.129 20.129 0 0 1 7.475-3.445c3.23-.59 6.51-.855 9.792-.793a111.08 111.08 0 0 1 26.179 3.07l-7.06 50.287zm-6.93-43.01l-9.426-.109a43.238 43.238 0 0 0-7.416.475 8.832 8.832 0 0 0-4.505 2.327 10.782 10.782 0 0 0-2.861 5.04 73.02 73.02 0 0 0-1.753 9.109c-.99 7.26-1.185 11.851-.584 13.772.6 1.92 2.35 2.874 5.247 2.861 3.036-.02 6.007-.88 8.585-2.485a52.02 52.02 0 0 0 9.425-7.792l3.287-23.198zM297.337 44.812l-2.97 12.08h-3.397c-1.93.049-3.835.462-5.614 1.217a46.297 46.297 0 0 0-5.613 2.643c-1.697.958-4.274 2.565-7.733 4.822l-4.446 32.674h-12.812l7.307-51.911h9.852l-.317 11.02c8.337-8.337 15.927-12.506 22.772-12.506l2.97-.04zM338.663 44.812l-2.97 12.08h-3.386a15.396 15.396 0 0 0-5.574 1.217 47.752 47.752 0 0 0-5.614 2.643c-1.69.958-4.268 2.565-7.733 4.822l-4.445 32.674H296.04l7.307-51.911h9.851l-.327 10.98c8.337-8.337 15.928-12.505 22.773-12.505h3.02zM350.634 98.208h-12.822l7.307-51.911h12.713l-7.198 51.91zm.851-74.446h5.832c1.034-.1 2.06.262 2.802.99.62.815.869 1.854.683 2.862l-.743 5.832c-.429 2.323-1.769 3.488-4.02 3.495h-5.831c-2.683 0-3.852-1.337-3.495-4.03l.812-5.683c.237-2.31 1.558-3.466 3.96-3.466zM408.475 87.723l.852 8.366c-5.44 2.258-12.786 3.39-22.04 3.396-9.254.007-15.68-2.343-19.277-7.05-3.604-4.692-4.77-11.88-3.495-21.564 1.32-9.96 4.109-16.792 8.366-20.495 4.258-3.703 11.251-5.558 20.98-5.564 8.614 0 14.423 1.465 17.426 4.396 3.003 2.93 4.116 7.221 3.337 12.871-.7 5.09-2.68 8.763-5.94 11.02-3.262 2.257-8.238 3.6-14.932 4.03l-16.425 1.376c.072 4.099 1.062 6.871 2.97 8.317 1.908 1.445 4.802 2.168 8.683 2.168a167.505 167.505 0 0 0 19.495-1.267zM378.07 69.812l14.852-1.267c2.97-.208 5.138-.862 6.525-1.98 1.386-1.12 2.237-2.97 2.594-5.674.208-2.683-.317-4.337-1.594-4.95-1.278-.614-3.96-.99-8.159-.99-4.66.072-7.944 1.062-9.851 2.97-1.908 1.907-3.363 5.871-4.367 11.89zM461.554 44.812l-2.97 12.08h-3.396c-1.931.049-3.835.462-5.614 1.217a46.297 46.297 0 0 0-5.614 2.643c-1.696.958-4.274 2.565-7.732 4.822l-4.446 32.674H418.97l7.307-51.911h9.852l-.317 11.02c8.337-8.337 15.927-12.506 22.772-12.506l2.97-.04z"/>
        <path fill="#0AC0FF" d="M39.337 94.624a6.614 6.614 0 0 0 5.604 3.396h49.208a6.436 6.436 0 0 0 5.594-3.248l12.307-21.247H86.693a1.644 1.644 0 0 1-1.544-1.674c-.004-.256.05-.51.158-.742l10.891-18.812a6.545 6.545 0 0 0 0-6.505L71.624 3.297A6.644 6.644 0 0 0 65.96 0H41.426l12.713 22.01a1.683 1.683 0 0 1-1.426 2.495H31a6.515 6.515 0 0 0-5.614 3.287L.871 70.297a6.455 6.455 0 0 0 0 6.455L13.12 98.02 25.86 75.94c.143-.235.345-.429.585-.564a1.663 1.663 0 0 1 2.277.604l10.614 18.644zm16.237-70.119l-.128.247.128-.247zm25.416 49.01H30.05h.118a1.653 1.653 0 0 1-1.653-1.664c-.004-.29.067-.577.208-.831l25.426-44.05a1.663 1.663 0 0 1 2.851 0l25.436 44.06a1.673 1.673 0 0 1-1.446 2.485z"/>
    </g>
</svg>
