<svg xmlns="http://www.w3.org/2000/svg" width="342" height="100" viewBox="0 0 342 100">
    <g fill="none" fill-rule="nonzero">
        <path fill="#3C117F" d="M106.448 79.648l8.36-59.416c7.115-.533 13.803-.8 20.064-.8 9.637 0 16.152 2.253 19.544 6.76 3.392 4.507 4.283 12.576 2.672 24.208a84 84 0 0 1-2.8 13.264 34.352 34.352 0 0 1-3.888 8.664 14.728 14.728 0 0 1-5.816 5.128 25.6 25.6 0 0 1-7.496 2.4c-3.295.444-6.62.644-9.944.6-5.76-.021-12.659-.29-20.696-.808zm18-51.152L118.4 71.2c4.357.112 7.227.168 8.608.168 4.304 0 7.563-.501 9.776-1.504 2.213-1.003 4.037-3.056 5.472-6.16 1.43-3.104 2.605-7.84 3.528-14.208.533-3.733.835-6.792.904-9.176a25.272 25.272 0 0 0-.384-6.024 6.12 6.12 0 0 0-2.112-3.704 9.16 9.16 0 0 0-3.792-1.72 28.8 28.8 0 0 0-5.896-.48l-10.056.104zM196.184 36.248l-2.4 9.816h-2.752a12.416 12.416 0 0 0-4.568.992 38.528 38.528 0 0 0-4.568 2.152c-1.376.773-3.47 2.08-6.28 3.92L172 79.648h-10.4l5.944-42.192h8l-.28 8.944c6.768-6.773 12.939-10.16 18.512-10.16l2.408.008zM205.92 79.648h-10.4l5.944-42.192H211.8l-5.88 42.192zm.688-60.536h4.736A2.848 2.848 0 0 1 213.6 20c.509.661.713 1.508.56 2.328l-.56 4.704c-.344 1.896-1.44 2.84-3.272 2.84H205.6c-2.181 0-3.13-1.09-2.848-3.272l.688-4.648c.16-1.893 1.216-2.84 3.168-2.84zM249.32 37.456h10.936a133.312 133.312 0 0 1-6.656 23.08c-2.23 5.867-4.437 10.285-6.624 13.256a13.872 13.872 0 0 1-4.352 4.528 12.4 12.4 0 0 1-6.248 1.328h-8.496a2.888 2.888 0 0 1-3.2-2.664l-7.576-39.528h11.024l4.912 34.448h1.2a5.6 5.6 0 0 0 2.8-.608 7.312 7.312 0 0 0 2.28-2.4c1.552-2.352 3.304-6.315 5.256-11.888a112.28 112.28 0 0 0 4.744-19.552zM298.584 71.128l.688 6.8c-4.421 1.84-10.392 2.76-17.912 2.76s-12.747-1.91-15.68-5.728c-2.928-3.813-3.875-9.656-2.84-17.528 1.067-8.096 3.336-13.65 6.808-16.664 3.472-3.013 9.155-4.52 17.048-4.52 7.008 0 11.73 1.192 14.168 3.576 2.437 2.384 3.341 5.872 2.712 10.464-.576 4.128-2.184 7.12-4.8 8.952-2.616 1.832-6.688 2.928-12.144 3.272l-13.344 1.12c.053 3.328.853 5.581 2.4 6.76 1.547 1.179 3.901 1.768 7.064 1.768 5.293-.034 10.58-.379 15.832-1.032zm-24.72-14.56l12.056-1.032c2.4-.168 4.176-.704 5.296-1.6 1.12-.896 1.824-2.4 2.112-4.608.288-2.208-.256-3.528-1.288-4.048s-3.248-.8-6.632-.8c-3.792.064-6.459.883-8 2.456-1.541 1.573-2.723 4.784-3.544 9.632zM341.728 36.248l-2.4 9.816h-2.768c-1.569.04-3.116.377-4.56.992a37.808 37.808 0 0 0-4.56 2.152c-1.376.773-3.472 2.08-6.288 3.92l-3.616 26.52h-10.4l5.944-42.192h8l-.28 8.944c6.779-6.773 12.95-10.16 18.512-10.16l2.416.008z"/>
        <path fill="#92D32A" d="M35.656 81.688a1.352 1.352 0 0 1 1.192-2h17.6a5.6 5.6 0 0 0 4.696-2.888L103.504 0h-20a5.776 5.776 0 0 0-4.68 2.976L35.656 77.68c-.12.189-.285.345-.48.456a1.36 1.36 0 0 1-1.856-.488L11.504 39.856 1.52 57.024a5.32 5.32 0 0 0-.008 5.376l20 34.568a5.336 5.336 0 0 0 4.6 2.664h19.944l-10.4-17.944z"/>
    </g>
</svg>
