<svg xmlns="http://www.w3.org/2000/svg" width="288" height="65" viewBox="0 0 288 65">
    <g fill="none" fill-rule="nonzero">
        <path fill="#12D7B1" d="M46.398 53.58H59.81a3.53 3.53 0 0 0 3.096-1.767L76.28 28.606a3.586 3.586 0 0 0 .033-3.581L62.907 1.801A3.58 3.58 0 0 0 59.833 0H46.398L60.83 24.992c.648 1.12.648 2.5 0 3.619l-5.916 10.224a.892.892 0 0 1-.325.314.903.903 0 0 1-1.245-.33L39.7 15.18a3.57 3.57 0 0 0-3.096-1.784H24.788a.909.909 0 0 1-.898-.904.832.832 0 0 0-.033-.204L30.93 0H17.54a3.58 3.58 0 0 0-3.112 1.79L1.03 24.997a3.592 3.592 0 0 0 0 3.586l13.408 23.224a3.603 3.603 0 0 0 3.079 1.79h13.43L16.525 28.6a3.63 3.63 0 0 1 0-3.62l5.9-10.24a.903.903 0 0 1 1.559.017L37.639 38.4a3.564 3.564 0 0 0 3.09 1.812h11.827a.925.925 0 0 1 .794 1.36l-6.952 12.009z"/>
        <path fill="#FFF" d="M106.958 37.65l-7.646-2.754c-2.78-1.043-4.673-2.5-5.679-4.374-1.006-1.872-1.315-4.26-.925-7.16.617-4.25 2.045-7.059 4.285-8.429s5.729-2.056 10.466-2.06a48.298 48.298 0 0 1 12.516 1.394l-.755 5.095c-4.554-.154-8.454-.231-11.7-.231h-2.633c-.634.037-1.264.126-1.884.264a2.831 2.831 0 0 0-1.564.75c-.36.427-.653.906-.87 1.42a9.249 9.249 0 0 0-.634 2.347c-.237 1.653-.127 2.755.314 3.36.44.606 1.498 1.157 3.156 1.736l7.414 2.666c2.975 1.08 4.936 2.508 5.884 4.285.947 1.778 1.208 4.21.782 7.3-.584 4.362-1.965 7.278-4.143 8.747-2.177 1.468-5.894 2.203-11.149 2.203a63.309 63.309 0 0 1-12.956-1.328l.81-5.271c6.757.158 10.716.235 11.876.231 3.13 0 5.233-.308 6.313-.925s1.755-2.007 2.027-4.17c.231-1.656.125-2.786-.32-3.388-.446-.6-1.426-1.168-2.985-1.708zM134.005 12.972l-1.388 10.604a48.519 48.519 0 0 1-1.45 6.952c4.635-4.139 8.858-6.206 12.67-6.203 2.468 0 4.332.696 5.591 2.088 1.26 1.392 1.693 3.36 1.3 5.905l-3.013 21.202h-6.99l2.666-19.367c.195-1.543.156-2.577-.116-3.102-.27-.518-.908-.782-1.911-.782a9.364 9.364 0 0 0-4.55 1.306 50.595 50.595 0 0 0-6.06 4.197l-2.407 17.748h-7.028l5.679-40.548h7.007zM161.398 53.52h-7.006l3.999-28.38h6.951l-3.944 28.38zm.463-40.718h3.184a1.917 1.917 0 0 1 1.537.578c.341.445.478 1.013.374 1.564l-.402 3.184c-.237 1.278-.97 1.912-2.203 1.912h-3.184c-1.469 0-2.106-.735-1.911-2.204l.462-3.128c.121-1.267.832-1.906 2.149-1.906h-.006zM177.736 25.14l-.176 5.674a27.691 27.691 0 0 1 5.938-4.517 12.614 12.614 0 0 1 6.17-1.856c2.236 0 3.964.435 5.183 1.306 1.22.87 2.079 2.434 2.578 4.693.5 2.258.44 5.356-.176 9.293a33.712 33.712 0 0 1-1.823 7.711 9.706 9.706 0 0 1-6.891 6.374c-1.59.338-3.212.493-4.837.463a57.872 57.872 0 0 1-8.747-.755 35.866 35.866 0 0 1-.402 5.387l-.931 5.905h-7.068l5.619-39.66 5.563-.017zm-1.795 23.687l5.156.06c3.397 0 5.6-.53 6.61-1.591 1.01-1.062 1.81-3.678 2.401-7.85.5-3.977.577-6.487.232-7.53-.345-1.043-1.273-1.564-2.782-1.564-1.102 0-2.578.484-4.368 1.448a27.394 27.394 0 0 0-5.454 4.005l-1.795 13.022zM210.424 25.14l-.171 5.674a27.421 27.421 0 0 1 5.938-4.517 12.614 12.614 0 0 1 6.164-1.856c2.244 0 3.972.435 5.184 1.306 1.211.87 2.07 2.434 2.578 4.693.503 2.258.446 5.356-.171 9.293a34.004 34.004 0 0 1-1.824 7.711 9.722 9.722 0 0 1-6.896 6.374c-1.59.338-3.212.494-4.837.463a57.806 57.806 0 0 1-8.742-.755c0 1.803-.136 3.604-.407 5.387l-.926 5.905h-7.089l5.619-39.66 5.58-.017zm-1.796 23.687l5.156.06c3.4 0 5.604-.53 6.61-1.591 1.006-1.062 1.809-3.678 2.407-7.85.5-3.977.577-6.487.232-7.53-.346-1.043-1.273-1.564-2.782-1.564-1.102 0-2.578.484-4.374 1.448a27.542 27.542 0 0 0-5.453 4.005l-1.796 13.022zM258.347 47.786l.463 4.578c-2.974 1.233-6.99 1.85-12.047 1.85s-8.571-1.285-10.543-3.856c-1.972-2.57-2.61-6.5-1.912-11.788.735-5.442 2.26-9.179 4.578-11.21 2.317-2.03 6.14-3.044 11.469-3.04 4.711 0 7.886.802 9.524 2.407 1.638 1.605 2.247 3.95 1.829 7.034-.39 2.784-1.471 4.793-3.245 6.027s-4.497 1.968-8.169 2.203l-8.979.755c.04 2.244.582 3.76 1.625 4.55 1.043.79 2.631 1.182 4.765 1.179a91.127 91.127 0 0 0 10.642-.689zm-16.608-9.778l8.109-.694c1.62-.113 2.807-.48 3.564-1.101.749-.595 1.223-1.653 1.416-3.096.192-1.443-.171-2.374-.865-2.727-.694-.352-2.204-.518-4.462-.518-2.549.037-4.345.588-5.387 1.653-1.043 1.065-1.835 3.226-2.375 6.483zM287.383 24.325l-1.653 6.61h-1.823a8.494 8.494 0 0 0-3.074.667 25.24 25.24 0 0 0-3.068 1.449c-.926.521-2.334 1.399-4.225 2.633l-2.435 17.842h-7.007l3.994-28.38h5.387l-.176 6.02c4.557-4.556 8.709-6.835 12.455-6.835l1.625-.006z"/>
    </g>
</svg>
