<svg xmlns="http://www.w3.org/2000/svg" width="572" height="100" viewBox="0 0 572 100">
    <g fill="none" fill-rule="nonzero">
        <path fill="#FCCE07" d="M71.444 75.232a1.657 1.657 0 0 1-.212-.828 1.636 1.636 0 0 1 1.637-1.677h21.394a6.515 6.515 0 0 0 5.636-3.252l12.121-21H86.87a1.636 1.636 0 0 1-1.627-1.637 1.758 1.758 0 0 1 .202-.828l10.708-18.535a6.505 6.505 0 0 0 0-6.505L84.02 0 71.424 21.818a1.657 1.657 0 0 1-2.828-.03L57.899 3.263A6.495 6.495 0 0 0 52.273 0H28.03l12.556 21.798a1.646 1.646 0 0 1-1.394 2.444H17.768a6.505 6.505 0 0 0-5.647 3.273L0 48.485h25.172c.9.005 1.626.736 1.626 1.636 0 .278-.066.551-.192.798L15.89 69.505a6.525 6.525 0 0 0 0 6.515l12.121 21 12.586-21.818a1.667 1.667 0 0 1 2.838 0l10.707 18.566a6.515 6.515 0 0 0 5.637 3.252H84.02L71.444 75.232zm-4.262-50.99c.9.006 1.626.737 1.626 1.637.001.282-.068.56-.202.808L57.424 46.07a1.657 1.657 0 0 1-2.838 0l.606 1.01-11.758-20.374a1.717 1.717 0 0 1-.202-.818 1.636 1.636 0 0 1 1.616-1.647h22.334zM29.434 50.97a1.737 1.737 0 0 1-.212-.829 1.626 1.626 0 0 1 1.576-1.656h22.384a1.667 1.667 0 0 1 1.424 2.444L43.434 70.323a1.646 1.646 0 0 1-2.818-.01L29.434 50.97zm42 19.343c-.142.24-.344.438-.586.576a1.667 1.667 0 0 1-2.262-.596L57.424 50.96a1.717 1.717 0 0 1-.202-.819 1.646 1.646 0 0 1 1.637-1.656h22.333a1.636 1.636 0 0 1 1.636 1.656c.002.282-.068.56-.202.808L71.434 70.313z"/>
        <path fill="#3C117F" d="M174.747 86.394l.627 9.96c-5.872 1.75-13.28 2.626-22.222 2.626-10.68.007-17.96-2.983-21.839-8.97-3.879-5.986-4.889-15.653-3.03-29 1.879-13.778 5.303-23.374 10.273-28.788 4.97-5.414 12.835-8.108 23.596-8.08 7.031-.112 14.047.7 20.868 2.414l-1.828 9.808c-6.06-.485-12.495-.731-19.303-.738-4.192 0-7.485.687-9.859 2.02-2.373 1.334-4.384 3.95-6.06 7.758-1.677 3.808-2.95 9.354-3.93 16.626-1.407 9.717-1.303 16.36.314 19.93 1.616 3.569 5.32 5.387 11.11 5.454a168.96 168.96 0 0 0 21.283-1.02zM229.434 97.717h-10.1l.312-8.909c-5.804 6.734-12.97 10.125-21.494 10.172-6.29.074-10.573-1.99-12.849-6.192s-2.714-11.404-1.313-21.606a59.293 59.293 0 0 1 3.515-14.142 18.03 18.03 0 0 1 5.92-8.03 19.91 19.91 0 0 1 7.393-3.404 48.485 48.485 0 0 1 9.707-.788c8.723-.023 17.417.994 25.9 3.03l-6.99 49.87zm-6.818-42.576l-9.333-.11a42.818 42.818 0 0 0-7.344.474 8.707 8.707 0 0 0-4.454 2.303 10.687 10.687 0 0 0-2.839 4.99 71.97 71.97 0 0 0-1.676 9.01c-.977 7.199-1.169 11.744-.576 13.636.593 1.893 2.323 2.839 5.192 2.839a16.293 16.293 0 0 0 8.444-2.424 51.384 51.384 0 0 0 9.334-7.718l3.252-23zM264.354 24.303l-8.182 57.687c-.273 2.162-.05 3.646.687 4.454.737.809 2.212 1.202 4.454 1.202h4.616l.526 9.546c-2.243 1.118-5.846 1.677-10.809 1.677-4.404 0-7.723-1.26-9.96-3.778-2.235-2.519-3.073-6.047-2.514-10.586l8.495-60.202h12.687zM313.131 87.444l.839 8.495a53.384 53.384 0 0 1-19.02 3.05c-9.233 0-15.56-2.134-18.98-6.403-3.421-4.27-4.431-11.296-3.03-21.08 1.393-9.785 4.188-16.671 8.383-20.658 4.196-3.986 10.768-5.98 19.717-5.98 7.408 0 13.421 1.01 18.04 3.031l-1.777 7.758c-7.131-.135-11.923-.202-14.374-.202-5.596 0-9.562 1.1-11.899 3.303-2.336 2.202-3.929 6.693-4.777 13.474-.842 6.849-.526 11.27.949 13.263 1.475 1.993 4.842 3.003 10.101 3.03 5.295.027 10.586-.334 15.828-1.08zM367.768 97.717h-10.101l.313-8.909c-5.798 6.734-12.963 10.125-21.495 10.172-6.29.074-10.573-1.99-12.849-6.192s-2.713-11.404-1.313-21.606a59.293 59.293 0 0 1 3.515-14.142 18.111 18.111 0 0 1 5.92-8.03 19.91 19.91 0 0 1 7.394-3.404 48.485 48.485 0 0 1 9.707-.788c8.726-.023 17.423.995 25.909 3.03l-7 49.87zm-6.819-42.576l-9.333-.11a42.818 42.818 0 0 0-7.343.474 8.707 8.707 0 0 0-4.455 2.303 10.778 10.778 0 0 0-2.838 4.99 71.97 71.97 0 0 0-1.727 9.01c-.977 7.199-1.169 11.744-.576 13.636.592 1.893 2.323 2.839 5.192 2.839 3-.01 5.94-.85 8.495-2.424a51.384 51.384 0 0 0 9.333-7.718l3.252-23zM402.586 55.556l-3.778 26.434c-.283 2.232-.09 3.737.576 4.505.667.768 2.151 1.151 4.464 1.151h7.263l.525 9.445a41.646 41.646 0 0 1-13.01 1.778c-4.673 0-8.114-1.327-10.323-3.98-2.209-2.653-2.963-6.394-2.263-11.222l4.04-28.111h-9.333l1.071-8.708 9.546-.525 2.1-14.788h12.597l-2.101 14.788h14.888l-1.161 9.233h-15.101zM461.313 44.859l-2.93 11.96h-3.363c-1.91.05-3.795.458-5.555 1.201a45.131 45.131 0 0 0-5.556 2.626c-1.677.943-4.229 2.532-7.656 4.768l-4.405 32.323h-12.656l7.242-51.394h9.748l-.313 10.91c8.249-8.243 15.767-12.367 22.555-12.374l2.89-.02zM489.525 44.859c9.091 0 15.4 2.151 18.93 6.454 3.528 4.303 4.596 11.374 3.202 21.212-1.347 9.65-4.162 16.485-8.445 20.505s-10.906 6.04-19.869 6.06c-9.016 0-15.346-2.13-18.99-6.393-3.643-4.263-4.794-11.29-3.454-21.08 1.394-9.718 4.226-16.607 8.495-20.668 4.27-4.06 10.98-6.09 20.131-6.09zm-.1 10.171c-4.829 0-8.324 1.189-10.486 3.566-2.161 2.377-3.737 7.027-4.727 13.95-.983 6.437-.842 10.774.424 13.01 1.266 2.235 4.202 3.346 8.808 3.333 4.829 0 8.324-1.205 10.485-3.616 2.162-2.411 3.7-6.973 4.616-13.687.91-6.58.751-10.987-.474-13.222-1.226-2.236-4.108-3.347-8.647-3.334zM534.94 46.323l-.314 10.596c8.667-8.04 16.653-12.06 23.96-12.06 4.33 0 7.633 1.259 9.909 3.777 2.276 2.519 3.098 6.085 2.465 10.697l-5.445 38.384h-12.747l4.808-34.818c.343-2.869.262-4.808-.263-5.818-.525-1.01-1.697-1.485-3.515-1.424a16.98 16.98 0 0 0-8.182 2.313 87.515 87.515 0 0 0-10.909 7.545l-4.404 32.202h-12.667l7.233-51.394h10.07z"/>
    </g>
</svg>
