<svg xmlns="http://www.w3.org/2000/svg" width="300" height="65" viewBox="0 0 300 65">
    <g fill="none" fill-rule="nonzero">
        <path fill="#FFF" d="M121.93 56.396l.412 6.545c-3.862 1.145-8.73 1.72-14.603 1.724-7.019 0-11.805-1.963-14.358-5.888-2.553-3.926-3.196-10.274-1.93-19.043 1.24-9.049 3.49-15.351 6.75-18.908 3.261-3.557 8.425-5.335 15.491-5.335a52.837 52.837 0 0 1 13.708 1.583l-1.261 6.474c-3.99-.322-8.214-.483-12.672-.483-2.755 0-4.913.449-6.474 1.345-1.562.897-2.881 2.596-3.958 5.097-1.082 2.506-1.94 6.153-2.575 10.941-.922 6.384-.853 10.745.206 13.084 1.06 2.338 3.493 3.53 7.298 3.578 4.666.06 9.33-.179 13.966-.714zM157.808 63.835h-6.615l.206-5.85c-3.81 4.402-8.515 6.629-14.114 6.68-4.132.043-6.944-1.313-8.437-4.067-1.493-2.754-1.78-7.474-.862-14.158a38.916 38.916 0 0 1 2.31-9.261 11.816 11.816 0 0 1 3.861-5.271 13.084 13.084 0 0 1 4.86-2.24c2.099-.383 4.23-.555 6.364-.515a72.201 72.201 0 0 1 17.016 1.996l-4.589 32.686zm-4.505-27.956l-6.126-.071a28.104 28.104 0 0 0-4.82.309 5.74 5.74 0 0 0-2.929 1.512 7.008 7.008 0 0 0-1.86 3.276 47.463 47.463 0 0 0-1.139 5.92c-.643 4.72-.77 7.704-.38 8.953.39 1.248 1.528 1.868 3.411 1.86a10.69 10.69 0 0 0 5.58-1.616 33.813 33.813 0 0 0 6.127-5.065l2.136-15.078zM193.269 29.128l-1.93 7.851h-2.208a10.001 10.001 0 0 0-3.65.792 30.093 30.093 0 0 0-3.648 1.718c-1.103.622-2.778 1.667-5.027 3.134l-2.89 21.238h-8.327l4.75-33.742h6.403l-.206 7.163c5.419-5.42 10.353-8.129 14.802-8.129l1.93-.025zM220.131 29.128l-1.93 7.851H216a10.007 10.007 0 0 0-3.624.792 31.04 31.04 0 0 0-3.649 1.718c-1.098.622-2.774 1.667-5.026 3.134l-2.89 21.238h-8.385l4.75-33.742h6.403l-.213 7.137c5.42-5.419 10.353-8.128 14.802-8.128h1.963zM227.912 63.835h-8.334l4.75-33.742h8.263l-4.68 33.742zm.553-48.39h3.79c.673-.065 1.34.17 1.822.644.404.53.565 1.205.444 1.86l-.482 3.79c-.28 1.51-1.15 2.268-2.613 2.272h-3.79c-1.745 0-2.504-.868-2.273-2.619l.528-3.694c.155-1.502 1.013-2.252 2.574-2.252zM265.509 57.02l.553 5.438c-3.535 1.467-8.31 2.203-14.325 2.207-6.016.005-10.192-1.523-12.53-4.582-2.343-3.05-3.1-7.723-2.272-14.017.858-6.474 2.67-10.915 5.438-13.321 2.767-2.407 7.313-3.613 13.637-3.617 5.599 0 9.374.952 11.327 2.857 1.952 1.905 2.675 4.694 2.168 8.366-.454 3.308-1.741 5.696-3.86 7.163-2.12 1.468-5.355 2.34-9.706 2.62l-10.677.894c.048 2.665.691 4.467 1.931 5.406 1.24.94 3.121 1.41 5.644 1.41 4.236-.028 8.468-.303 12.672-.824zm-19.764-11.642l9.654-.824c1.93-.135 3.34-.56 4.24-1.287.902-.727 1.455-1.93 1.687-3.688.135-1.744-.206-2.819-1.036-3.218-.83-.399-2.575-.643-5.303-.643-3.03.047-5.164.69-6.404 1.93-1.24 1.24-2.186 3.817-2.838 7.73zM300.01 29.128l-1.93 7.851h-2.208a10.001 10.001 0 0 0-3.649.792 30.093 30.093 0 0 0-3.649 1.718c-1.102.622-2.778 1.667-5.026 3.134l-2.89 21.238h-8.327l4.75-33.742h6.403l-.206 7.163c5.419-5.42 10.353-8.129 14.802-8.129l1.93-.025z"/>
        <path fill="#0AC0FF" d="M25.569 61.505a4.299 4.299 0 0 0 3.642 2.208h31.986a4.183 4.183 0 0 0 3.636-2.111l8-13.81H56.35a1.068 1.068 0 0 1-1.003-1.089 1.12 1.12 0 0 1 .103-.482l7.079-12.228c.75-1.31.75-2.919 0-4.228L46.555 2.143A4.318 4.318 0 0 0 42.875 0H26.926l8.263 14.306a1.094 1.094 0 0 1-.927 1.622H20.15c-1.51.01-2.9.825-3.649 2.137L.566 45.693a4.196 4.196 0 0 0 0 4.196l7.961 13.824L16.81 49.36c.093-.152.224-.279.38-.366a1.081 1.081 0 0 1 1.48.392l6.899 12.118zm10.554-45.577l-.083.161.083-.16zm16.52 31.857h-33.11.076a1.075 1.075 0 0 1-1.074-1.082 1.088 1.088 0 0 1 .135-.54L35.197 17.53a1.081 1.081 0 0 1 1.853 0l16.533 28.638a1.088 1.088 0 0 1-.94 1.616z"/>
    </g>
</svg>
