<svg xmlns="http://www.w3.org/2000/svg" width="372" height="65" viewBox="0 0 372 65">
    <g fill="none" fill-rule="nonzero">
        <path fill="#FCCE07" d="M46.439 48.901a1.077 1.077 0 0 1-.138-.538 1.064 1.064 0 0 1 1.064-1.09H61.27c1.51-.001 2.907-.807 3.663-2.114l7.88-13.65h-16.35a1.064 1.064 0 0 1-1.056-1.064 1.142 1.142 0 0 1 .13-.538l6.96-12.048a4.228 4.228 0 0 0 0-4.229L54.613 0l-8.187 14.182a1.077 1.077 0 0 1-1.838-.02L37.633 2.121A4.222 4.222 0 0 0 33.977 0H18.22l8.16 14.169a1.07 1.07 0 0 1-.905 1.589H11.549a4.228 4.228 0 0 0-3.67 2.127L0 31.515h16.362a1.064 1.064 0 0 1 1.057 1.064c0 .18-.043.358-.125.518l-6.966 12.081a4.241 4.241 0 0 0 0 4.235l7.879 13.65 8.18-14.182a1.083 1.083 0 0 1 1.845 0l6.96 12.068a4.235 4.235 0 0 0 3.664 2.114h15.757L46.44 48.901zm-2.77-33.143a1.064 1.064 0 0 1 1.056 1.063c.001.184-.044.364-.131.525l-7.268 12.6a1.077 1.077 0 0 1-1.845 0l.394.657-7.643-13.243a1.116 1.116 0 0 1-.131-.532 1.064 1.064 0 0 1 1.05-1.07h14.517zM19.131 33.13a1.13 1.13 0 0 1-.138-.538 1.057 1.057 0 0 1 1.025-1.077h14.55a1.083 1.083 0 0 1 .925 1.589L28.232 45.71a1.07 1.07 0 0 1-1.832-.007L19.133 33.13zm27.3 12.574a1.044 1.044 0 0 1-.38.374 1.083 1.083 0 0 1-1.471-.388l-7.255-12.566a1.116 1.116 0 0 1-.132-.532 1.07 1.07 0 0 1 1.064-1.077h14.517a1.064 1.064 0 0 1 1.063 1.077c.001.183-.044.364-.13.525l-7.276 12.587z"/>
        <path fill="#FFF" d="M113.586 56.156l.407 6.474c-3.817 1.138-8.632 1.707-14.445 1.707-6.942.004-11.673-1.94-14.194-5.83-2.522-3.892-3.178-10.175-1.97-18.85 1.221-8.956 3.447-15.193 6.677-18.713 3.23-3.519 8.343-5.27 15.337-5.252 4.571-.072 9.132.455 13.565 1.57l-1.188 6.374c-3.94-.315-8.122-.475-12.547-.479-2.725 0-4.865.447-6.408 1.313-1.543.867-2.85 2.567-3.94 5.043-1.09 2.475-1.917 6.08-2.554 10.807-.915 6.316-.847 10.634.204 12.954 1.05 2.32 3.458 3.501 7.222 3.545 4.62.07 9.241-.151 13.834-.663zM149.132 63.516h-6.565l.203-5.79c-3.773 4.376-8.43 6.58-13.972 6.61-4.088.049-6.872-1.293-8.351-4.024-1.48-2.731-1.764-7.413-.854-14.044a38.54 38.54 0 0 1 2.285-9.192 11.72 11.72 0 0 1 3.848-5.22 12.94 12.94 0 0 1 4.806-2.212 31.515 31.515 0 0 1 6.31-.512 71.283 71.283 0 0 1 16.834 1.97l-4.544 32.414zm-4.431-27.674l-6.067-.072a27.832 27.832 0 0 0-4.773.308 5.66 5.66 0 0 0-2.896 1.497 6.946 6.946 0 0 0-1.845 3.244 46.78 46.78 0 0 0-1.09 5.856c-.634 4.68-.76 7.634-.374 8.864.385 1.23 1.51 1.845 3.375 1.845a10.59 10.59 0 0 0 5.489-1.576 33.4 33.4 0 0 0 6.066-5.016l2.115-14.95zM171.83 15.797l-5.318 37.496c-.178 1.405-.033 2.37.446 2.896.48.525 1.438.781 2.896.781h3l.341 6.205c-1.457.726-3.799 1.09-7.025 1.09-2.862 0-5.02-.819-6.474-2.456-1.453-1.637-1.998-3.93-1.634-6.88l5.521-39.132h8.247zM203.535 56.839l.545 5.522a34.7 34.7 0 0 1-12.363 1.982c-6 0-10.113-1.387-12.337-4.162-2.223-2.775-2.88-7.343-1.97-13.703.907-6.36 2.723-10.835 5.45-13.426 2.727-2.592 7-3.887 12.816-3.887 4.815 0 8.724.656 11.727 1.97l-1.156 5.042c-4.635-.088-7.75-.132-9.343-.132-3.637 0-6.215.716-7.734 2.147-1.52 1.432-2.554 4.351-3.106 8.759-.547 4.452-.341 7.325.617 8.62.959 1.296 3.147 1.953 6.566 1.97a70.45 70.45 0 0 0 10.288-.702zM239.049 63.516h-6.566l.204-5.79c-3.769 4.376-8.426 6.58-13.972 6.61-4.088.049-6.872-1.293-8.351-4.024-1.48-2.731-1.764-7.413-.854-14.044a38.54 38.54 0 0 1 2.285-9.192 11.772 11.772 0 0 1 3.847-5.22 12.94 12.94 0 0 1 4.806-2.212 31.515 31.515 0 0 1 6.31-.512 71.375 71.375 0 0 1 16.841 1.97l-4.55 32.414zm-4.432-27.674l-6.066-.072a27.832 27.832 0 0 0-4.774.308 5.66 5.66 0 0 0-2.895 1.497 7.006 7.006 0 0 0-1.845 3.244 46.78 46.78 0 0 0-1.123 5.856c-.635 4.68-.76 7.634-.374 8.864.385 1.23 1.51 1.845 3.375 1.845a10.59 10.59 0 0 0 5.521-1.576 33.4 33.4 0 0 0 6.067-5.016l2.114-14.95zM261.68 36.111l-2.455 17.182c-.184 1.451-.059 2.43.374 2.929.434.499 1.399.748 2.903.748h4.72l.342 6.14a27.07 27.07 0 0 1-8.457 1.155c-3.038 0-5.274-.863-6.71-2.587-1.436-1.725-1.926-4.156-1.47-7.295l2.626-18.272h-6.067l.696-5.66 6.204-.34 1.366-9.613h8.187l-1.365 9.612h9.678l-.756 6.001h-9.815zM299.854 29.158l-1.905 7.774h-2.186a9.967 9.967 0 0 0-3.611.781 29.335 29.335 0 0 0-3.611 1.707c-1.09.613-2.749 1.646-4.977 3.1l-2.862 21.01h-8.227l4.707-33.407h6.336l-.203 7.091c5.362-5.357 10.249-8.038 14.66-8.043l1.879-.013zM318.191 29.158c5.91 0 10.01 1.399 12.304 4.196 2.294 2.797 2.988 7.392 2.082 13.787-.876 6.273-2.705 10.716-5.49 13.329-2.783 2.613-7.088 3.926-12.914 3.94-5.86 0-9.975-1.386-12.343-4.157-2.368-2.77-3.117-7.338-2.246-13.702.906-6.317 2.747-10.794 5.522-13.434 2.775-2.64 7.137-3.959 13.085-3.959zm-.065 6.612c-3.139 0-5.41.772-6.815 2.317-1.405 1.545-2.43 4.568-3.073 9.068-.64 4.184-.547 7.003.276 8.456.823 1.453 2.73 2.176 5.725 2.167 3.138 0 5.41-.784 6.815-2.35 1.405-1.568 2.405-4.533 3-8.897.591-4.277.489-7.141-.308-8.595-.797-1.453-2.67-2.175-5.62-2.166zM347.71 30.11l-.203 6.887c5.633-5.226 10.825-7.839 15.574-7.839 2.814 0 4.961.819 6.44 2.456 1.48 1.637 2.014 3.954 1.603 6.953l-3.54 24.95H359.3l3.125-22.633c.223-1.864.17-3.125-.17-3.781-.342-.657-1.103-.966-2.285-.926-1.872.042-3.702.56-5.318 1.503a56.885 56.885 0 0 0-7.091 4.905l-2.863 20.931h-8.233l4.7-33.406h6.547z"/>
    </g>
</svg>
