<svg xmlns="http://www.w3.org/2000/svg" width="223" height="65" viewBox="0 0 223 65">
    <g fill="none" fill-rule="nonzero">
        <path fill="#FFF" d="M69.191 51.771l5.434-38.62c4.625-.347 8.972-.52 13.042-.52 6.264 0 10.499 1.464 12.703 4.394 2.205 2.93 2.784 8.174 1.737 15.735a54.6 54.6 0 0 1-1.82 8.622 22.329 22.329 0 0 1-2.527 5.631 9.573 9.573 0 0 1-3.78 3.333 16.64 16.64 0 0 1-4.873 1.56 44.002 44.002 0 0 1-6.463.39c-3.744-.013-8.229-.189-13.453-.525zm11.7-33.249L76.96 46.28c2.832.073 4.697.11 5.595.11 2.798 0 4.916-.327 6.355-.978 1.438-.652 2.624-1.987 3.556-4.004.93-2.018 1.694-5.096 2.294-9.236.346-2.426.542-4.414.587-5.964.074-1.31-.01-2.625-.25-3.916a3.978 3.978 0 0 0-1.372-2.407 5.954 5.954 0 0 0-2.465-1.118 18.72 18.72 0 0 0-3.832-.312l-6.537.067zM127.52 23.561l-1.56 6.38h-1.79a8.07 8.07 0 0 0-2.968.645c-1.02.401-2.012.869-2.97 1.4-.894.502-2.255 1.351-4.082 2.547l-2.35 17.238h-6.76l3.864-27.425h5.2l-.182 5.814c4.399-4.403 8.41-6.604 12.032-6.604l1.566.005zM133.848 51.771h-6.76l3.864-27.425h6.718l-3.822 27.425zm.447-39.348h3.079a1.851 1.851 0 0 1 1.466.577c.33.43.463.98.364 1.513l-.364 3.058c-.224 1.232-.936 1.846-2.127 1.846h-3.073c-1.418 0-2.035-.71-1.851-2.127l.447-3.021c.104-1.23.79-1.846 2.06-1.846zM162.058 24.346h7.108a86.653 86.653 0 0 1-4.326 15.002c-1.45 3.814-2.884 6.686-4.306 8.617a9.017 9.017 0 0 1-2.828 2.943 8.06 8.06 0 0 1-4.062.863h-5.522a1.877 1.877 0 0 1-2.08-1.731l-4.924-25.694h7.165l3.193 22.392h.78a3.64 3.64 0 0 0 1.82-.396 4.753 4.753 0 0 0 1.482-1.56c1.009-1.528 2.148-4.104 3.416-7.727a72.982 72.982 0 0 0 3.084-12.709zM194.08 46.233l.447 4.42c-2.874 1.196-6.755 1.794-11.643 1.794-4.888 0-8.285-1.24-10.192-3.723-1.903-2.479-2.519-6.276-1.846-11.393.693-5.263 2.168-8.873 4.425-10.832 2.257-1.958 5.95-2.938 11.081-2.938 4.556 0 7.625.775 9.21 2.325 1.584 1.55 2.171 3.816 1.762 6.801-.374 2.683-1.42 4.628-3.12 5.819-1.7 1.19-4.347 1.903-7.893 2.127l-8.674.728c.035 2.163.555 3.628 1.56 4.394 1.006.766 2.536 1.149 4.592 1.149a88.067 88.067 0 0 0 10.29-.67zm-16.068-9.464l7.836-.67c1.56-.11 2.714-.458 3.442-1.04.728-.583 1.186-1.56 1.373-2.996.187-1.435-.166-2.293-.837-2.631-.67-.338-2.111-.52-4.31-.52-2.466.042-4.199.574-5.2 1.596-1.003 1.023-1.77 3.11-2.304 6.261zM222.123 23.561l-1.56 6.38h-1.799a8.091 8.091 0 0 0-2.964.645c-1.018.4-2.008.867-2.964 1.4-.894.502-2.257 1.351-4.087 2.547l-2.35 17.238h-6.76l3.863-27.425h5.2l-.182 5.814c4.406-4.403 8.417-6.604 12.033-6.604l1.57.005z"/>
        <path fill="#92D32A" d="M23.176 53.097a.879.879 0 0 1 .775-1.3h11.44a3.64 3.64 0 0 0 3.053-1.877L67.278 0h-13a3.754 3.754 0 0 0-3.042 1.934l-28.06 48.558a.9.9 0 0 1-.312.296.884.884 0 0 1-1.206-.317L7.478 25.906l-6.49 11.16a3.458 3.458 0 0 0-.005 3.494l13 22.47a3.468 3.468 0 0 0 2.99 1.73h12.963l-6.76-11.663z"/>
    </g>
</svg>
