<svg xmlns="http://www.w3.org/2000/svg" width="472" height="100" viewBox="0 0 472 100">
    <g fill="#3C117F" fill-rule="nonzero">
        <path d="M26.896 20a6.648 6.648 0 0 0-5.768 3.336l-7.864 13.6a6.136 6.136 0 0 0 .048 6.176l8.112 14.008a5.704 5.704 0 0 0 4.896 2.808h14.696A2.944 2.944 0 0 0 43.6 55.52l-7.352-12.648a6 6 0 0 1 0-5.8l8.248-14.312a5.672 5.672 0 0 1 4.4-2.76H88.6a6.296 6.296 0 0 0 5.48-3.2L103.768 0H61.552a6.736 6.736 0 0 0-5.824 3.328l-8 13.896A5.344 5.344 0 0 1 43.424 20H26.896z"/>
        <path d="M82.32 42.736a5.712 5.712 0 0 0-4.896-2.808h-14.64a2.936 2.936 0 0 0-2.584 4.376l7.28 12.664c1 1.804 1 3.996 0 5.8l-8.232 14.344a5.68 5.68 0 0 1-4.328 2.768H15.152a6.32 6.32 0 0 0-5.48 3.2L0 99.848l42.08-.048a6.984 6.984 0 0 0 5.96-3.328l8-13.84a5.336 5.336 0 0 1 4.272-2.752h16.552a6.64 6.64 0 0 0 5.768-3.344l7.832-13.6A6.152 6.152 0 0 0 90.4 56.8l-8.08-14.064zM144.08 65.152l-11.032-4.944c-3.35-1.53-5.704-3.325-7.064-5.384a11.256 11.256 0 0 1-1.496-7.68c.47-4 2.19-6.81 5.16-8.432 2.97-1.621 7.517-2.4 13.64-2.336a136.28 136.28 0 0 1 19.152 1.6l-1.152 7.32a550.393 550.393 0 0 0-17.296-.264 36.896 36.896 0 0 0-7.152.44 2.584 2.584 0 0 0-2.024 2.4 2.776 2.776 0 0 0 .8 2.696c1.27.93 2.662 1.68 4.136 2.232l11.032 4.944c3.648 1.6 6.152 3.312 7.504 5.16 1.352 1.848 1.824 4.4 1.416 7.64a14.56 14.56 0 0 1-1.6 5.024 10.504 10.504 0 0 1-2.784 3.272 11.744 11.744 0 0 1-4.32 1.896c-1.774.432-3.58.72-5.4.864-1.824.144-4.088.224-6.792.224-2.24 0-4.21-.045-5.912-.136-1.701-.09-2.981-.179-3.84-.264-.856-.088-2.136-.248-3.84-.488-1.704-.24-3.088-.408-4.152-.528l1.152-7.504c3.12.24 7.592.36 13.416.36 5.333 0 8.877-.221 10.632-.664 1.755-.443 2.77-1.37 3.048-2.784a1.496 1.496 0 0 1 0-.8.632.632 0 0 0-.128-.656 2.032 2.032 0 0 1-.312-.528c0-.12-.176-.272-.44-.448a4 4 0 0 1-.576-.44c-.212-.168-.45-.3-.704-.392-.352-.152-.648-.28-.88-.4a22.16 22.16 0 0 0-1.064-.488c-.472-.208-.832-.4-1.128-.512zM185.032 19.08l-2.12 16.12a74.4 74.4 0 0 1-2.208 10.592c7.067-6.277 13.499-9.416 19.296-9.416 3.77 0 6.61 1.067 8.52 3.2 1.91 2.133 2.57 5.136 1.984 9.008l-4.592 32.296h-10.648l4.064-29.472c.296-2.352.232-3.928-.176-4.728-.408-.8-1.384-1.192-2.912-1.192a14.2 14.2 0 0 0-6.928 1.992 75.752 75.752 0 0 0-9.224 6.4l-3.704 27.008h-10.68l8.648-61.776 10.68-.032zM226.776 80.856h-10.68l6.088-43.2H232.8l-6.024 43.2zm.704-62.04h4.856a2.912 2.912 0 0 1 2.336.88 3 3 0 0 1 .576 2.4l-.616 4.856c-.36 1.936-1.472 2.912-3.36 2.912H226.4c-2.24 0-3.21-1.117-2.912-3.352l.704-4.8c.192-1.93 1.288-2.896 3.288-2.896zM251.664 37.6l-.264 8.648a42.304 42.304 0 0 1 9.04-6.888 19.2 19.2 0 0 1 9.4-2.824c3.413 0 6.048.661 7.904 1.984 1.856 1.323 3.165 3.707 3.928 7.152.763 3.44.675 8.163-.264 14.168a51.824 51.824 0 0 1-2.784 11.736 14.808 14.808 0 0 1-10.504 9.704c-2.42.52-4.893.758-7.368.712a87.672 87.672 0 0 1-13.328-1.152c0 2.748-.206 5.491-.616 8.208l-1.416 9.008h-10.76L243.2 37.6h8.464zm-2.736 36.096l7.856.088c5.173 0 8.541-.8 10.104-2.4 1.563-1.6 2.784-5.587 3.664-11.96.763-6.059.88-9.883.352-11.472-.528-1.6-1.944-2.4-4.24-2.4-1.704 0-3.928.744-6.664 2.208a42.024 42.024 0 0 0-8.336 6.088l-2.736 19.848zM291.288 68.8h3.2c2.704 0 3.888 1.32 3.536 4l-.624 4.504c-.232 2.4-1.6 3.616-4.056 3.616h-3.2c-2.768 0-3.976-1.352-3.624-4.056l.712-4.504c.235-2.373 1.587-3.56 4.056-3.56zM340.712 72.208l.704 7.152a44.848 44.848 0 0 1-16 2.56c-7.76 0-13.093-1.795-16-5.384-2.907-3.59-3.76-9.504-2.56-17.744 1.179-8.23 3.53-14.024 7.056-17.384 3.525-3.36 9.056-5.037 16.592-5.032 6.24 0 11.307.853 15.2 2.56l-1.504 6.528c-6-.112-10.03-.17-12.088-.176-4.71 0-8.048.928-10.016 2.784-1.968 1.856-3.301 5.635-4 11.336-.712 5.768-.44 9.488.8 11.2 1.24 1.712 4.056 2.512 8.472 2.512a90.4 90.4 0 0 0 13.344-.912zM386.688 80.856h-8.472l.272-7.496c-4.89 5.648-10.923 8.501-18.096 8.56-5.296.053-8.899-1.683-10.808-5.208-1.91-3.525-2.277-9.587-1.104-18.184a50.088 50.088 0 0 1 2.952-11.872 15.2 15.2 0 0 1 4.992-6.752 16.696 16.696 0 0 1 6.216-2.864 40.968 40.968 0 0 1 8.168-.664 92.624 92.624 0 0 1 21.8 2.56l-5.92 41.92zm-5.736-35.832l-7.848-.088a36.064 36.064 0 0 0-6.184.4 7.336 7.336 0 0 0-3.72 1.944 8.912 8.912 0 0 0-2.4 4.192 59.512 59.512 0 0 0-1.456 7.584c-.827 6.064-.99 9.89-.488 11.48.501 1.59 1.957 2.39 4.368 2.4a13.664 13.664 0 0 0 7.176-2.096 43.4 43.4 0 0 0 7.848-6.488l2.704-19.328zM432.144 36.376l-2.472 10.064h-2.824a12.8 12.8 0 0 0-4.68 1.016 37.888 37.888 0 0 0-4.672 2.2c-1.413.8-3.563 2.133-6.448 4l-3.704 27.2h-10.68l6.088-43.2h8.208l-.264 9.176c6.933-6.933 13.259-10.4 18.976-10.4l2.472-.056zM453.056 65.152l-11.032-4.944c-3.35-1.53-5.701-3.325-7.056-5.384a11.256 11.256 0 0 1-1.504-7.68c.47-4 2.192-6.81 5.168-8.432 2.976-1.621 7.51-2.4 13.6-2.336 6.414.081 12.814.616 19.152 1.6l-1.144 7.32a550.659 550.659 0 0 0-17.304-.264 36.856 36.856 0 0 0-7.144.44 2.592 2.592 0 0 0-2.032 2.4 2.792 2.792 0 0 0 .8 2.696 17.352 17.352 0 0 0 4.176 2.232l11.032 4.944c3.648 1.6 6.144 3.312 7.504 5.16 1.36 1.848 1.816 4.4 1.408 7.64a14.4 14.4 0 0 1-1.6 5.024 10.4 10.4 0 0 1-2.776 3.272 11.72 11.72 0 0 1-4.328 1.896c-1.781.44-3.595.734-5.424.88-1.824.144-4.088.224-6.8.224-2.235 0-4.205-.045-5.912-.136-1.707-.09-2.987-.179-3.84-.264-.848-.088-2.128-.248-3.832-.488-1.704-.24-3.096-.408-4.152-.528l1.184-7.512c3.12.24 7.592.36 13.416.36 5.333 0 8.88-.221 10.64-.664 1.736-.44 2.744-1.368 3.04-2.784a1.6 1.6 0 0 1 .048-.8.64.64 0 0 0-.136-.656 1.744 1.744 0 0 1-.304-.528c0-.12-.176-.272-.44-.448a3.248 3.248 0 0 1-.576-.44c-.212-.168-.45-.3-.704-.392-.36-.152-.648-.28-.888-.4s-.584-.28-1.056-.488c-.472-.208-.888-.408-1.184-.52z"/>
    </g>
</svg>
