<svg xmlns="http://www.w3.org/2000/svg" viewBox="0 0 589.27 124.81"><defs><style>.cls-1{fill:#3c117f;}</style></defs><title>logo_shipcars</title><g id="Layer_2" data-name="Layer 2"><g id="Layer_1-2" data-name="Layer 1"><path class="cls-1" d="
M33.62,25a8.31,8.31,0,0,0-7.21,4.17l-9.83,17a7.67,7.67,0,0,0,.06,7.72L26.78,71.4a7.13,7.13,0,0,0,6.12,3.51l18.37,0A3.68,3.68,0,0,0,54.5,69.4L45.31,53.59a7.5,7.5,0,0,1,0-7.25L55.62,28.45A7.09,7.09,0,0,1,61.12,25l49.63,0a7.87,7.87,0,0,0,6.85-4L129.71,0H76.94a8.42,8.42,0,0,0-7.28,4.16l-10,17.37A6.68,6.68,0,0,1,54.28,25Z"/><path class="cls-1" d="M102.9,53.42a7.14,7.14,0,0,0-6.12-3.51l-18.3,0a3.67,3.67,0,0,0-3.23,5.47l9.1,15.83a7.48,7.48,0,0,1,0,7.25L74.06,96.39a7.1,7.1,0,0,1-5.41,3.46H18.94a7.9,7.9,0,0,0-6.85,4L0,124.81l52.6-.06a8.73,8.73,0,0,0,7.45-4.16l10-17.3a6.67,6.67,0,0,1,5.34-3.44H96.08a8.3,8.3,0,0,0,7.21-4.18l9.79-17A7.69,7.69,0,0,0,113,71Z"/><path class="cls-1" d="M180.1,81.44l-13.79-6.18q-6.28-2.87-8.83-6.73a14.07,14.07,0,0,1-1.87-9.6q.88-7.5,6.45-10.54t17.05-2.92a170.35,170.35,0,0,1,23.94,2l-1.44,9.15q-10.49-.33-21.62-.33a46.12,46.12,0,0,0-8.94.55,3.23,3.23,0,0,0-2.53,3,3.47,3.47,0,0,0,1,3.37A21.57,21.57,0,0,0,174.69,66l13.79,6.18c4.56,2,7.69,4.14,9.38,6.45s2.28,5.5,1.77,9.55a18.2,18.2,0,0,1-2,6.28,13.13,13.13,0,0,1-3.48,4.09,14.68,14.68,0,0,1-5.4,2.37A42.69,42.69,0,0,1,182,102c-2.28.18-5.11.28-8.49.28q-4.2,0-7.39-.17t-4.8-.33c-1.07-.11-2.67-.31-4.8-.61s-3.86-.51-5.19-.66l1.44-9.38q5.85.45,16.77.45,10,0,13.29-.83t3.81-3.48a1.87,1.87,0,0,1,0-1,.79.79,0,0,0-.16-.82,2.54,2.54,0,0,1-.39-.66c0-.15-.22-.34-.55-.56a5,5,0,0,1-.72-.55,3.08,3.08,0,0,0-.88-.49c-.44-.19-.81-.35-1.1-.5s-.74-.35-1.33-.61S180.47,81.58,180.1,81.44Z"/><path class="cls-1" d="M231.29,23.85,228.64,44a93,93,0,0,1-2.76,13.24Q239.13,45.47,250,45.47q7.07,0,10.65,4t2.48,11.26l-5.74,40.37H244.08l5.08-36.84c.37-2.94.29-4.91-.22-5.91s-1.73-1.49-3.64-1.49a17.75,17.75,0,0,0-8.66,2.49,94.69,94.69,0,0,0-11.53,8l-4.63,33.76H207.13l10.81-77.22Z"/><path class="cls-1" d="M283.47,101.07H270.12l7.61-54H291Zm.88-77.55h6.07a3.64,3.64,0,0,1,2.92,1.1,3.75,3.75,0,0,1,.72,3l-.77,6.07c-.45,2.42-1.84,3.64-4.2,3.64H283q-4.2,0-3.64-4.19l.88-6Q280.6,23.52,284.35,23.52Z"/><path class="cls-1" d="M314.58,47l-.33,10.81a52.88,52.88,0,0,1,11.3-8.61,24,24,0,0,1,11.75-3.53q6.4,0,9.88,2.48t4.91,8.94q1.43,6.45-.33,17.71a64.78,64.78,0,0,1-3.48,14.67,18.51,18.51,0,0,1-13.13,12.13,40.28,40.28,0,0,1-9.21.89,109.59,109.59,0,0,1-16.66-1.44,68.67,68.67,0,0,1-.77,10.26l-1.77,11.26H293.29L304,47Zm-3.42,45.12,9.82.11q9.7,0,12.63-3t4.58-14.95q1.43-11.36.44-14.34c-.66-2-2.43-3-5.3-3-2.13,0-4.91.93-8.33,2.76a52.53,52.53,0,0,0-10.42,7.61Z"/><path class="cls-1" d="M364.11,86h4c3.38,0,4.86,1.65,4.42,5l-.78,5.63c-.29,3-2,4.52-5.07,4.52h-4q-5.19,0-4.53-5.07l.89-5.63Q359.48,86,364.11,86Z"/><path class="cls-1" d="M425.89,90.26l.88,8.94a56.06,56.06,0,0,1-20,3.2q-14.55,0-20-6.73t-3.2-22.18q2.21-15.43,8.82-21.73t20.74-6.29q11.7,0,19,3.2l-1.88,8.16q-11.25-.21-15.11-.22-8.83,0-12.52,3.48t-5,14.17c-.89,7.21-.55,11.86,1,14s5.07,3.14,10.59,3.14A113,113,0,0,0,425.89,90.26Z"/><path class="cls-1" d="M483.36,101.07H472.77l.34-9.37q-9.17,10.59-22.62,10.7-9.93.1-13.51-6.51T435.6,73.16a62.61,62.61,0,0,1,3.69-14.84,19,19,0,0,1,6.24-8.44,20.87,20.87,0,0,1,7.77-3.58,51.21,51.21,0,0,1,10.21-.83,115.78,115.78,0,0,1,27.25,3.2Zm-7.17-44.79-9.81-.11a45.08,45.08,0,0,0-7.73.5A9.17,9.17,0,0,0,454,59.1a11.14,11.14,0,0,0-3,5.24,74.39,74.39,0,0,0-1.82,9.48q-1.55,11.37-.61,14.35t5.46,3A17.08,17.08,0,0,0,463,88.55a54.25,54.25,0,0,0,9.81-8.11Z"/><path class="cls-1" d="M540.18,45.47l-3.09,12.58h-3.53a16,16,0,0,0-5.85,1.27,47.36,47.36,0,0,0-5.84,2.75q-2.65,1.5-8.06,5l-4.63,34H495.83l7.61-54H513.7l-.33,11.47q13-13,23.72-13Z"/><path class="cls-1" d="M566.32,81.44l-13.79-6.18q-6.28-2.87-8.82-6.73a14.07,14.07,0,0,1-1.88-9.6q.88-7.5,6.46-10.54t17-2.92a170.09,170.09,0,0,1,23.94,2l-1.43,9.15q-10.49-.33-21.63-.33a46.07,46.07,0,0,0-8.93.55,3.24,3.24,0,0,0-2.54,3,3.49,3.49,0,0,0,1,3.37A21.69,21.69,0,0,0,560.92,66l13.79,6.18c4.56,2,7.68,4.14,9.38,6.45s2.27,5.5,1.76,9.55a18,18,0,0,1-2,6.28,13,13,0,0,1-3.47,4.09,14.65,14.65,0,0,1-5.41,2.37,42.39,42.39,0,0,1-6.78,1.1c-2.28.18-5.11.28-8.5.28q-4.19,0-7.39-.17t-4.8-.33c-1.06-.11-2.66-.31-4.79-.61s-3.87-.51-5.19-.66L539,91.14q5.85.45,16.77.45,10,0,13.3-.83c2.17-.55,3.43-1.71,3.8-3.48a2,2,0,0,1,.06-1,.8.8,0,0,0-.17-.82,2.18,2.18,0,0,1-.38-.66c0-.15-.22-.34-.55-.56a4.06,4.06,0,0,1-.72-.55,3.08,3.08,0,0,0-.88-.49c-.45-.19-.81-.35-1.11-.5s-.73-.35-1.32-.61S566.69,81.58,566.32,81.44Z"
/></g></g></svg>
